<?xml version="1.0" standalone="no"?>
<!DOCTYPE svg PUBLIC "-//W3C//DTD SVG 20010904//EN"
 "http://www.w3.org/TR/2001/REC-SVG-20010904/DTD/svg10.dtd">
<svg version="1.0" xmlns="http://www.w3.org/2000/svg"
 width="300.000000pt" height="300.000000pt" viewBox="0 0 300.000000 300.000000"
 preserveAspectRatio="xMidYMid meet">
<metadata>
Created by potrace 1.10, written by Peter Selinger 2001-2011
</metadata>
<g transform="translate(0.000000,300.000000) scale(0.100000,-0.100000)"
fill="#000000" stroke="none">
<path d="M1172 2975 c-31 -17 -63 -26 -108 -29 -55 -3 -71 -8 -104 -35 -25
-20 -50 -31 -70 -31 -41 0 -94 -23 -112 -49 -8 -11 -32 -28 -54 -37 -21 -8
-51 -21 -67 -27 -15 -7 -41 -31 -57 -54 -19 -26 -41 -44 -60 -48 -16 -4 -43
-23 -62 -46 -36 -44 -69 -77 -122 -126 -20 -18 -40 -49 -45 -70 -7 -24 -24
-49 -47 -67 -38 -30 -64 -79 -64 -119 0 -13 -15 -41 -34 -62 -34 -38 -46 -71
-46 -127 0 -17 -12 -45 -27 -65 -24 -32 -28 -46 -28 -107 0 -50 -6 -81 -19
-105 -14 -27 -17 -45 -11 -85 7 -57 7 -66 -1 -154 -4 -48 -2 -68 10 -87 12
-18 14 -38 10 -84 -6 -53 -4 -65 21 -106 17 -29 25 -55 21 -68 -9 -34 13 -100
45 -136 18 -21 29 -45 29 -64 0 -36 32 -90 70 -117 17 -12 31 -34 35 -53 11
-48 35 -85 77 -112 22 -15 44 -42 56 -67 21 -48 34 -61 85 -86 21 -10 50 -39
71 -71 l37 -54 -24 -26 c-35 -37 -47 -65 -47 -106 0 -63 39 -116 95 -129 16
-4 320 -7 675 -6 355 1 654 1 665 1 11 -1 81 -1 155 -1 106 1 143 5 170 18 47
23 76 69 78 125 3 41 -1 51 -35 88 l-37 41 29 24 c17 13 35 24 41 24 16 0 44
34 44 52 0 9 16 28 36 43 22 17 46 49 60 81 13 30 31 55 43 59 30 9 69 60 81
106 7 26 27 56 55 82 37 36 45 50 51 94 3 29 15 61 26 73 28 30 48 84 48 131
0 23 8 55 19 73 22 35 28 85 17 133 -5 20 -3 40 5 55 24 44 28 90 13 135 -10
29 -12 56 -7 81 11 56 6 100 -17 132 -14 19 -20 44 -20 79 0 56 -17 108 -43
130 -12 9 -17 29 -17 62 0 59 -11 88 -44 119 -14 14 -26 36 -26 49 0 39 -41
112 -72 130 -16 9 -33 31 -39 51 -17 52 -46 88 -87 109 -22 11 -46 36 -59 58
-28 49 -48 67 -96 84 -23 8 -44 24 -52 39 -21 40 -48 59 -105 74 -36 10 -60
23 -73 40 -23 32 -77 56 -124 56 -25 0 -45 9 -69 30 -36 31 -87 46 -131 37
-19 -3 -42 3 -70 20 -36 21 -51 24 -96 19 -28 -3 -56 -5 -62 -5 -5 0 -47 3
-92 5 -65 4 -87 2 -107 -11 -23 -15 -28 -16 -57 -1 -44 22 -77 20 -127 -9z
m347 -41 l31 -26 26 21 c42 33 89 28 131 -14 32 -32 36 -34 56 -20 46 32 125
7 148 -47 9 -22 15 -26 29 -18 38 20 90 12 121 -19 16 -16 29 -38 29 -49 0
-17 6 -19 48 -14 41 3 52 0 79 -22 16 -14 34 -22 38 -18 5 4 5 2 2 -4 -4 -7
-4 -25 -1 -40 5 -26 10 -29 45 -31 58 -3 78 -7 74 -14 -3 -3 2 -15 10 -25 8
-10 15 -35 15 -54 l0 -35 47 1 c47 1 93 -24 93 -49 0 -5 -9 2 -21 17 -11 14
-25 26 -31 26 -5 0 2 -14 16 -31 18 -21 26 -42 26 -69 0 -35 3 -39 34 -50 19
-6 40 -17 46 -25 7 -8 16 -12 21 -10 4 3 13 -5 19 -17 9 -20 9 -21 -2 -7 -11
14 -13 7 -13 -43 0 -39 4 -58 12 -58 7 0 27 -13 45 -29 25 -22 32 -36 32 -67
1 -22 -3 -49 -7 -61 -6 -17 -3 -23 13 -28 26 -8 60 -61 60 -93 0 -13 -7 -36
-15 -52 -14 -28 -14 -30 12 -57 16 -15 31 -27 34 -26 15 5 -10 -99 -29 -120
l-21 -23 22 -14 c12 -8 24 -14 27 -13 3 1 6 -19 8 -43 3 -49 -9 -80 -42 -106
-14 -12 -17 -20 -10 -25 19 -13 34 -50 34 -82 0 -32 -43 -91 -66 -91 -13 0
-13 -3 0 -22 20 -29 20 -92 0 -123 -8 -13 -29 -28 -47 -34 -24 -9 -28 -14 -19
-23 17 -17 15 -73 -3 -108 -9 -17 -29 -34 -50 -41 -32 -12 -35 -16 -30 -40 13
-56 -44 -129 -100 -129 -11 0 -15 -10 -15 -36 0 -51 -53 -104 -104 -104 -33 0
-36 -2 -36 -29 0 -17 -11 -42 -25 -59 -13 -16 -22 -31 -20 -34 2 -2 -20 -4
-49 -3 -52 0 -54 -1 -65 -32 -11 -30 -16 -33 -54 -33 -23 0 -320 -1 -660 -3
-339 -1 -613 0 -607 1 19 7 10 20 -10 15 -11 -3 -20 -9 -20 -13 0 -4 -10 -6
-22 -5 -13 1 -33 3 -46 4 -16 1 -24 9 -28 30 -6 27 -9 29 -39 24 -57 -9 -125
46 -125 102 0 10 -9 15 -27 15 -43 0 -89 34 -103 75 -6 20 -9 42 -6 50 3 9 -1
15 -10 15 -60 0 -120 68 -111 125 5 28 2 34 -17 39 -55 14 -92 86 -72 143 6
19 3 25 -17 32 -14 6 -28 15 -32 21 -3 5 -10 8 -14 6 -3 -3 -7 3 -8 12 -1 9
-5 32 -9 50 -4 22 -1 40 10 57 20 31 20 32 -3 38 -11 3 -29 20 -41 38 -24 39
-21 90 7 121 17 19 17 20 0 29 -24 14 -47 62 -47 98 0 17 11 42 25 59 17 21
22 33 14 37 -6 4 -18 23 -26 42 -18 43 -4 93 34 123 24 19 25 21 9 38 -37 41
-9 140 44 157 18 6 19 9 6 33 -7 15 -16 43 -19 62 -3 19 -3 29 0 22 3 -9 12
-3 25 18 10 18 32 37 48 43 23 9 28 16 25 36 -14 95 -14 98 13 122 15 13 20
16 13 7 -16 -22 -3 -23 23 -3 11 8 27 15 35 15 12 0 16 12 17 50 0 33 -3 46
-9 38 -7 -10 -8 -10 -5 0 2 8 8 13 13 13 15 0 45 30 40 39 -3 4 1 8 8 7 6 0
27 1 45 1 29 2 32 5 32 36 0 37 30 81 62 92 16 5 18 8 7 16 -14 9 -3 8 50 -7
15 -5 21 1 26 24 3 17 15 42 26 56 11 14 16 25 10 25 -5 0 -17 -10 -25 -22 -9
-12 -16 -18 -16 -12 0 6 8 18 18 26 23 20 46 33 39 22 -3 -5 22 -9 55 -9 l60
0 -5 31 c-4 24 0 37 17 53 12 12 26 21 30 21 5 0 -3 -9 -18 -21 -14 -11 -26
-25 -26 -31 0 -7 10 -2 23 10 38 36 81 46 117 29 23 -12 30 -13 30 -3 0 8 9
25 20 39 12 15 20 29 20 32 -1 4 2 10 6 13 4 4 4 2 1 -4 -4 -8 9 -10 44 -6 36
3 54 0 67 -11 16 -15 20 -14 45 18 47 58 113 57 164 -3 17 -21 23 -23 23 -10
0 9 14 28 31 42 41 35 96 35 138 0z m881 -2414 c0 -12 -44 -24 -62 -17 -8 3
-4 9 12 15 32 14 50 14 50 2z m-1688 -118 c-6 -2 -12 -11 -12 -21 0 -9 -5 -22
-11 -28 -17 -17 -19 -123 -2 -123 9 0 12 14 11 51 -2 45 1 54 25 75 35 30 69
31 101 2 36 -34 40 -59 13 -99 -21 -31 -27 -34 -75 -35 -75 -2 -78 -14 -5 -14
53 0 65 4 91 28 l30 28 25 -22 c27 -23 57 -24 246 -10 36 2 71 0 81 -6 24 -16
67 -2 86 28 14 20 15 30 5 50 -26 57 0 89 33 39 12 -18 14 -36 10 -64 -5 -32
-3 -41 13 -50 15 -7 25 -6 41 5 19 13 25 13 44 1 36 -22 270 -17 296 6 23 21
28 21 51 -2 16 -16 33 -18 150 -17 85 1 135 6 142 13 9 9 18 9 31 2 10 -6 28
-7 38 -4 32 10 37 58 15 145 -6 24 -4 26 34 28 51 3 96 -19 116 -58 19 -37 19
-63 0 -100 -27 -52 -49 -60 -162 -60 -65 0 -111 -5 -124 -13 -17 -9 -23 -9
-26 1 -6 15 -123 17 -123 2 0 -12 -37 -13 -44 -1 -8 12 -874 13 -897 0 -13 -6
-25 -6 -39 3 -16 10 -24 10 -41 0 -14 -9 -24 -10 -33 -3 -6 5 -59 10 -116 11
-58 1 -113 2 -122 3 -20 2 -58 74 -58 111 0 50 57 106 107 106 10 0 25 9 33
20 15 21 15 21 25 -1 7 -16 6 -24 -3 -27z m269 -42 c36 -20 18 -120 -22 -120
-6 0 -19 5 -30 10 -26 14 -27 94 -1 109 22 13 29 13 53 1z m95 2 c6 -4 14 -28
18 -54 7 -45 5 -49 -18 -59 -38 -17 -57 3 -53 55 4 60 21 79 53 58z m108 -8
c9 -8 16 -20 16 -25 0 -16 -27 -64 -45 -79 -19 -15 -34 -5 -17 12 17 17 15 25
-8 31 -36 9 -14 77 25 77 7 0 21 -7 29 -16z m96 7 c0 -6 -4 -13 -10 -16 -16
-10 -12 -22 10 -28 13 -3 20 -14 20 -31 0 -47 -71 -60 -85 -16 -7 24 32 100
52 100 7 0 13 -4 13 -9z m164 0 c8 -12 -41 -121 -54 -121 -15 0 -12 16 10 60
25 49 25 52 -2 48 -11 -2 -23 3 -25 10 -5 14 62 17 71 3z m86 0 c0 -6 -4 -13
-10 -16 -16 -10 -12 -22 10 -28 30 -8 27 -54 -5 -69 -22 -10 -29 -9 -48 10
l-22 22 24 45 c21 40 51 61 51 36z m98 -4 c6 -7 11 -22 10 -32 0 -11 2 -27 6
-36 8 -18 -17 -49 -39 -49 -19 0 -47 29 -39 41 4 6 13 4 24 -6 15 -13 19 -14
29 -1 10 11 9 16 -5 24 -14 8 -16 13 -6 24 15 19 3 32 -15 16 -18 -15 -29 -2
-13 17 15 18 34 19 48 2z m102 4 c0 -6 -4 -13 -10 -16 -16 -10 -12 -22 10 -28
36 -9 14 -77 -25 -77 -16 0 -45 27 -45 42 0 20 44 88 57 88 7 0 13 -4 13 -9z
m70 -2 c0 -19 -21 -50 -31 -44 -5 4 -9 17 -9 31 0 17 5 24 20 24 11 0 20 -5
20 -11z m78 2 c8 -4 12 -17 11 -27 -2 -11 0 -25 4 -32 12 -18 -1 -50 -24 -57
-26 -9 -62 22 -53 44 4 9 6 25 6 36 -2 36 27 55 56 36z m102 0 c0 -6 -4 -13
-10 -16 -16 -10 -12 -22 10 -28 36 -9 14 -77 -25 -77 -16 0 -45 27 -45 41 0
22 42 89 55 89 8 0 15 -4 15 -9z m100 -6 c6 -8 10 -20 7 -27 -2 -7 0 -21 5
-31 7 -14 5 -24 -8 -38 -21 -23 -37 -24 -58 -3 -22 21 -9 40 13 20 18 -17 31
-12 31 11 0 7 -7 13 -17 13 -15 0 -15 1 0 18 19 21 11 38 -10 20 -18 -15 -29
-2 -13 17 16 19 34 19 50 0z m90 -51 c0 -48 -3 -65 -12 -61 -9 2 -12 19 -10
50 3 36 0 48 -12 53 -25 9 -19 24 9 24 24 0 25 -2 25 -66z"/>
<path d="M1270 2881 c0 -12 50 -64 56 -58 3 3 -4 19 -17 36 -22 30 -39 40 -39
22z"/>
<path d="M557 2215 c-122 -34 -207 -98 -207 -157 0 -33 27 -98 41 -98 18 0 24
5 21 21 -3 20 49 72 105 104 23 14 43 25 45 25 2 0 -14 -52 -35 -116 -42 -130
-73 -290 -63 -330 9 -35 50 -74 78 -74 22 0 23 4 23 62 0 35 4 88 8 118 8 55
8 55 -11 33 -11 -12 -25 -49 -31 -83 -17 -85 -35 -69 -27 24 6 71 11 93 60
255 25 87 24 112 -9 125 -20 7 -83 -24 -130 -65 -28 -25 -36 -28 -41 -15 -13
33 55 93 142 125 64 24 164 38 164 22 0 -6 -6 -11 -14 -11 -18 0 -47 -45 -41
-62 3 -7 -8 -50 -25 -96 -33 -91 -38 -143 -15 -162 42 -35 193 47 251 136 27
40 36 27 13 -18 -25 -50 -48 -70 -110 -99 -61 -28 -74 -50 -58 -97 6 -20 27
-58 45 -83 41 -56 44 -75 12 -58 -31 16 -63 55 -92 110 -25 47 -52 76 -62 66
-7 -7 49 -119 81 -161 38 -49 103 -73 156 -57 26 8 44 21 51 37 15 31 4 41
-27 24 -35 -19 -61 2 -112 89 -24 39 -43 73 -43 75 0 2 12 6 28 9 41 9 116 60
147 102 30 38 44 117 31 169 -9 37 -56 87 -101 107 -48 22 -175 24 -248 4z
m276 -87 c9 -11 17 -27 17 -36 0 -37 -45 -105 -94 -142 -51 -38 -145 -85 -153
-76 -8 8 57 199 73 217 14 15 13 19 -7 32 l-22 16 24 5 c82 18 137 13 162 -16z"/>
<path d="M706 2079 c-31 -69 -57 -141 -52 -146 8 -8 26 7 26 21 0 7 11 35 25
62 14 27 25 55 25 62 0 7 15 12 41 12 53 0 48 24 -7 28 -37 2 -40 0 -58 -39z"/>
<path d="M1764 2212 c-74 -22 -145 -63 -173 -98 -27 -34 -27 -87 0 -131 20
-32 48 -41 41 -12 -6 24 21 59 74 94 84 56 84 57 42 -68 -42 -125 -74 -293
-64 -333 9 -35 50 -74 79 -74 21 0 23 4 19 32 -3 17 1 69 8 116 l13 85 31 -64
c18 -35 43 -79 56 -98 27 -35 86 -71 120 -71 36 0 88 27 95 50 9 29 0 36 -29
21 -35 -19 -58 -2 -110 82 -25 41 -46 76 -46 79 0 3 12 8 28 11 41 9 116 60
148 102 23 31 29 50 32 104 4 79 -14 115 -79 158 -36 24 -52 28 -133 30 -65 2
-108 -2 -152 -15z m152 -24 c4 -6 3 -8 -3 -5 -19 12 -53 -23 -53 -54 0 -16 -4
-37 -9 -47 -10 -17 -45 -127 -54 -169 -3 -12 2 -31 10 -43 13 -18 22 -21 52
-16 58 9 101 35 171 103 35 35 66 63 68 63 6 0 -32 -65 -53 -89 -11 -12 -46
-36 -77 -52 -84 -42 -86 -71 -14 -178 41 -61 41 -61 20 -61 -19 0 -70 54 -90
96 -8 17 -28 46 -44 65 l-30 34 -24 -27 c-15 -17 -27 -46 -31 -75 -9 -67 -15
-84 -26 -78 -24 15 4 196 50 329 25 70 27 119 5 136 -13 11 -23 10 -58 -8 -24
-11 -60 -35 -80 -52 -20 -18 -37 -28 -37 -24 -3 24 5 51 19 68 51 56 266 120
288 84z m137 -60 c9 -11 17 -27 17 -36 0 -35 -44 -104 -87 -137 -49 -37 -152
-90 -160 -82 -8 9 47 181 68 209 19 27 19 27 -3 42 -24 17 -17 23 42 29 57 6
104 -4 123 -25z"/>
<path d="M1926 2079 c-33 -72 -57 -141 -51 -147 3 -3 7 -3 9 -1 9 10 66 138
66 148 0 6 18 11 41 11 53 0 48 24 -7 28 -37 2 -40 0 -58 -39z"/>
<path d="M951 2045 c-1 -16 -8 -47 -15 -67 -16 -46 -12 -49 9 -7 9 17 15 46
12 67 -3 33 -4 34 -6 7z"/>
<path d="M2171 2045 c-1 -16 -8 -47 -15 -67 -16 -46 -12 -49 9 -7 9 17 15 46
12 67 -3 33 -4 34 -6 7z"/>
<path d="M478 2019 c-10 -5 -22 -27 -28 -49 -13 -47 -40 -59 -78 -34 l-27 18
16 -25 c33 -49 99 -48 99 2 0 10 10 34 21 54 24 39 23 48 -3 34z"/>
<path d="M1692 2014 c-12 -8 -22 -26 -22 -39 0 -26 -24 -55 -45 -55 -9 0 -12
-6 -9 -15 13 -32 64 -10 64 28 0 11 10 35 21 54 25 40 22 49 -9 27z"/>
<path d="M987 1963 c-51 -54 -95 -202 -80 -274 7 -36 56 -79 89 -79 28 0 71
41 80 77 8 29 20 22 27 -14 6 -30 51 -63 86 -63 12 0 33 11 47 25 30 30 87
151 79 165 -14 23 -32 5 -65 -63 -77 -159 -94 -34 -25 180 6 19 1 25 -29 40
-30 14 -41 15 -56 5 -16 -10 -25 -8 -52 8 -45 27 -69 25 -101 -7z m53 -21 c0
-5 -13 -33 -29 -63 -34 -64 -56 -149 -47 -184 4 -14 2 -25 -3 -25 -26 0 -20
150 7 195 4 6 7 16 8 24 5 27 64 77 64 53z m140 -36 c0 -13 -7 -42 -15 -65 -8
-23 -16 -68 -17 -100 -2 -52 -4 -57 -19 -48 -37 23 -39 42 -14 106 14 33 25
69 25 80 0 30 11 51 26 51 8 0 14 -10 14 -24z m-60 11 c0 -1 -13 -39 -29 -84
-33 -94 -71 -167 -86 -164 -25 5 6 156 45 219 14 22 27 32 45 32 14 0 25 -1
25 -3z"/>
<path d="M2211 1968 c-55 -51 -101 -213 -81 -286 7 -29 19 -44 45 -57 47 -26
82 -13 111 43 l22 42 11 -33 c12 -35 55 -67 90 -67 12 0 33 11 47 25 30 30 87
151 79 165 -14 23 -32 5 -65 -63 -77 -159 -94 -34 -25 180 6 19 1 25 -29 40
-30 14 -41 15 -56 5 -16 -10 -25 -8 -52 8 -42 26 -69 25 -97 -2z m59 -25 c0
-4 -9 -16 -19 -27 -22 -24 -71 -162 -71 -200 0 -14 -5 -26 -11 -26 -8 0 -10
19 -6 65 9 94 57 195 94 195 7 0 13 -3 13 -7z m130 -28 c0 -7 -7 -40 -15 -72
-8 -31 -15 -78 -15 -105 0 -57 -10 -65 -40 -33 l-22 24 28 78 c16 43 29 86 30
96 2 26 3 27 19 27 8 0 15 -7 15 -15z m-71 -27 c-46 -141 -91 -234 -110 -222
-22 14 15 167 56 230 9 14 25 24 40 24 23 0 23 -2 14 -32z"/>
<path d="M2107 1895 c-16 -20 -53 -49 -82 -66 -36 -20 -52 -35 -48 -45 4 -11
14 -9 54 12 27 15 55 34 63 43 12 14 49 91 43 91 -1 0 -15 -16 -30 -35z"/>
<path d="M1240 1850 c-12 -38 -20 -75 -18 -82 3 -7 13 11 22 39 10 29 22 55
27 58 12 8 12 42 0 49 -5 3 -19 -25 -31 -64z"/>
<path d="M2461 1855 c-30 -98 -25 -111 11 -27 21 51 27 77 20 84 -7 7 -17 -10
-31 -57z"/>
<path d="M879 1884 c-13 -14 -45 -38 -71 -52 -46 -26 -63 -52 -34 -52 28 0
110 65 123 98 16 39 14 40 -18 6z"/>
<path d="M1405 1903 c-36 -5 -55 -27 -55 -65 l0 -28 106 3 c58 2 109 8 114 13
4 5 10 25 12 44 l3 35 -75 1 c-41 1 -88 -1 -105 -3z m131 -40 c-11 -12 -138
-15 -131 -3 3 5 36 10 72 10 37 0 63 -3 59 -7z"/>
<path d="M1617 1855 c-20 -72 -26 -75 -151 -75 l-113 0 -28 -66 c-38 -89 -83
-134 -134 -134 -24 0 -51 9 -73 24 l-35 23 -22 -23 c-27 -28 -81 -32 -124 -9
-26 13 -30 13 -44 -1 -14 -13 -14 -17 -2 -24 8 -5 19 -5 26 1 8 8 19 6 35 -5
34 -24 94 -21 121 7 l23 22 33 -22 c21 -15 49 -23 74 -23 34 0 46 6 77 39 20
21 47 65 59 100 l23 61 119 0 118 0 16 31 c9 16 15 47 13 67 l-3 37 -8 -30z"/>
<path d="M2565 1765 c-34 -85 -70 -147 -94 -165 -39 -27 -90 -26 -135 5 -29
20 -38 22 -42 11 -3 -8 -20 -22 -39 -30 -26 -13 -39 -14 -66 -4 -19 6 -40 16
-48 22 -11 8 -15 8 -19 -2 -7 -20 -58 -42 -101 -42 -53 0 -89 15 -130 53 -30
28 -33 29 -20 7 9 -14 38 -40 65 -59 45 -31 53 -33 107 -28 42 4 66 12 82 27
22 21 25 21 47 6 31 -22 90 -20 121 4 l26 20 33 -20 c46 -28 99 -26 135 4 35
30 96 157 90 188 -3 22 -4 22 -12 3z"/>
<path d="M596 1677 c-7 -29 -8 -72 0 -64 3 3 9 22 14 41 9 39 -4 60 -14 23z"/>
<path d="M1818 1687 c-5 -10 -8 -33 -7 -50 0 -31 1 -31 10 -7 5 13 9 36 7 50
-3 21 -4 22 -10 7z"/>
<path d="M657 1614 c27 -38 49 -57 62 -52 5 1 -12 21 -37 43 -43 37 -45 38
-25 9z"/>
<path d="M1681 1590 c16 -25 74 -70 90 -70 5 0 9 7 9 15 0 8 -9 15 -20 15 -10
0 -36 15 -57 33 -33 28 -36 29 -22 7z"/>
<path d="M471 1580 c9 -14 32 -34 51 -45 47 -25 88 -10 88 32 l0 26 -23 -21
c-31 -29 -59 -28 -99 6 -33 27 -33 27 -17 2z"/>
<path d="M780 1553 c-35 -13 -70 -46 -105 -98 -131 -198 -88 -415 83 -415 61
0 103 16 150 55 l33 28 15 -22 c27 -37 70 -54 110 -41 18 6 37 17 41 24 5 7
26 21 49 32 l41 20 12 -27 c15 -33 73 -63 104 -53 12 4 35 17 50 30 16 13 34
24 42 24 7 0 18 7 25 15 18 22 30 18 30 -9 0 -23 40 -66 61 -66 4 0 5 23 2 50
-7 59 6 65 30 15 19 -41 66 -68 102 -59 14 3 36 19 49 35 28 33 36 36 36 14 0
-14 54 -55 73 -55 5 0 22 14 39 31 27 26 33 28 40 15 5 -9 23 -23 40 -32 40
-21 89 -13 133 20 l32 25 21 -24 c12 -14 33 -27 46 -31 33 -8 97 23 115 58 14
24 13 33 -8 101 -15 48 -22 86 -18 106 5 24 2 33 -16 46 -32 22 -66 19 -76 -7
-5 -13 -19 -57 -31 -98 -27 -91 -87 -160 -138 -160 -51 0 -61 64 -11 74 38 7
95 63 105 100 9 38 -29 76 -84 83 -35 5 -44 2 -66 -22 -25 -27 -46 -75 -66
-150 -13 -53 -45 -94 -60 -79 -15 14 5 130 30 179 18 36 18 36 -5 51 -13 9
-34 14 -47 12 -19 -2 -25 -13 -36 -58 -27 -114 -33 -128 -56 -153 -31 -33 -37
-33 -70 0 l-27 27 36 18 c37 20 75 70 75 101 0 26 -45 67 -73 67 -28 0 -49
-21 -77 -76 -10 -21 -19 -32 -20 -23 0 27 50 192 66 217 14 22 14 25 -3 38
-10 8 -31 13 -48 11 -28 -2 -30 -5 -56 -105 -15 -56 -31 -127 -34 -156 -5 -41
-14 -61 -35 -81 l-27 -26 5 75 c4 71 3 76 -23 100 -37 34 -87 43 -121 21 -28
-18 -63 -86 -64 -122 0 -24 -44 -82 -54 -72 -4 3 -2 18 4 33 17 44 12 101 -11
129 -26 35 -90 54 -124 39 -28 -13 -60 -71 -70 -127 -4 -22 -15 -48 -24 -59
-29 -34 -93 -60 -149 -60 -46 -1 -57 3 -74 24 -31 38 -21 136 21 222 53 108
135 171 164 126 14 -22 -17 -119 -51 -160 -20 -23 -21 -29 -9 -34 47 -18 127
73 127 143 0 81 -98 153 -170 126z m0 -56 c-48 -44 -117 -161 -127 -216 -7
-43 -16 -39 -10 6 3 23 16 66 29 95 26 55 98 138 120 138 7 0 2 -11 -12 -23z
m1430 -191 c0 -13 3 -33 7 -43 6 -17 5 -17 -15 1 -22 19 -29 46 -15 59 13 14
23 6 23 -17z m-1110 -44 c0 -26 -7 -56 -15 -66 -8 -11 -15 -32 -15 -47 0 -31
-23 -54 -46 -45 -14 5 -15 15 -10 56 13 94 51 171 77 154 5 -3 9 -26 9 -52z
m260 0 c0 -19 -9 -50 -21 -68 -11 -19 -19 -40 -16 -47 7 -20 -12 -47 -33 -47
-17 0 -20 7 -20 45 0 50 24 131 48 157 21 25 42 5 42 -40z m680 40 c0 -23 -45
-89 -71 -103 -19 -10 -20 -9 -14 13 24 76 85 141 85 90z m-390 -8 c0 -38 -67
-114 -101 -114 -11 0 31 80 59 113 19 22 42 22 42 1z m-126 -92 c-3 -49 -18
-74 -40 -65 -15 6 -19 39 -5 47 5 3 12 23 16 43 4 21 9 42 13 47 9 16 20 -27
16 -72z m669 5 c25 -78 23 -107 -8 -107 -38 0 -81 49 -56 64 4 3 14 26 21 51
7 25 15 45 19 45 3 0 14 -24 24 -53z m-260 -12 c4 -8 2 -17 -3 -20 -6 -4 -10
-18 -11 -33 0 -24 -1 -25 -9 -6 -9 22 -2 74 10 74 4 0 10 -7 13 -15z"/>
<path d="M1814 1524 c-19 -46 -15 -83 12 -101 20 -13 23 -10 52 49 29 58 30
64 15 76 -33 24 -63 15 -79 -24z"/>
<path d="M1923 1489 c-11 -20 -24 -47 -28 -60 -11 -35 -25 -49 -49 -49 -20 0
-19 -1 4 -14 14 -7 28 -11 32 -9 14 7 69 134 66 151 -2 12 -9 7 -25 -19z"/>
<path d="M1638 1455 c-25 -48 -31 -76 -16 -70 17 7 41 60 36 82 -3 14 -7 12
-20 -12z"/>
<path d="M809 1423 c-50 -55 -90 -144 -95 -212 l-4 -56 18 60 c23 76 54 135
93 179 17 20 29 43 27 52 -2 13 -11 8 -39 -23z"/>
<path d="M890 1268 c-16 -13 -35 -18 -57 -16 -35 4 -40 -1 -21 -20 22 -22 76
-15 94 13 22 34 14 47 -16 23z"/>
<path d="M2322 1142 c-7 -93 -135 -158 -203 -103 -23 19 -24 19 -61 0 -45 -23
-108 -25 -149 -4 -27 14 -32 14 -51 0 -30 -20 -66 -19 -103 3 -29 18 -31 18
-60 0 -34 -20 -77 -23 -107 -7 -15 8 -27 8 -44 -2 -20 -10 -30 -10 -59 4 -20
9 -38 24 -41 32 -9 22 -23 19 -73 -15 -63 -43 -111 -39 -168 12 -25 23 -53 18
-98 -19 -24 -21 -37 -24 -71 -20 -23 2 -55 14 -71 25 l-30 21 -34 -23 c-93
-62 -194 -59 -268 7 l-25 22 15 -25 c22 -34 74 -68 116 -76 47 -9 133 11 177
41 l36 24 36 -24 c49 -33 91 -32 145 5 54 36 61 37 94 6 44 -41 126 -46 156
-9 7 8 24 19 37 24 20 8 30 4 58 -21 37 -32 66 -38 86 -17 10 11 17 11 41 -1
34 -17 91 -10 117 13 16 15 20 14 51 -4 41 -25 76 -27 101 -4 19 17 21 17 50
0 39 -22 105 -22 148 2 33 18 35 18 65 0 39 -24 92 -24 132 1 47 28 65 61 60
112 -2 24 -4 33 -5 20z"/>
<path d="M856 784 c-4 -47 -5 -88 -2 -91 14 -14 36 9 36 37 0 40 23 39 35 -2
7 -23 17 -34 33 -36 26 -4 26 -4 6 43 -14 34 -14 39 0 54 19 21 21 52 4 69 -7
7 -33 12 -59 12 l-46 0 -7 -86z m82 34 c-5 -34 -38 -37 -38 -4 0 20 5 26 21
26 15 0 20 -5 17 -22z"/>
<path d="M1168 855 c-7 -9 -19 -23 -27 -31 -10 -12 -11 -18 -3 -23 8 -5 9 -23
2 -66 -10 -63 -9 -70 13 -62 14 5 27 50 27 94 0 13 7 26 15 29 20 8 19 21 -2
27 -15 4 -15 6 5 12 12 4 22 14 22 21 0 19 -36 18 -52 -1z"/>
<path d="M1537 848 c-3 -13 -9 -53 -12 -90 -7 -65 -6 -68 14 -68 17 0 21 6 21
35 0 45 24 47 36 3 7 -23 17 -34 32 -36 26 -4 26 -2 7 44 -13 32 -13 37 0 51
18 17 20 54 3 71 -7 7 -31 12 -54 12 -35 0 -43 -4 -47 -22z m76 -14 c10 -10
-12 -44 -28 -44 -9 0 -15 10 -15 25 0 18 5 25 18 25 10 0 22 -3 25 -6z"/>
<path d="M1810 816 c0 -7 7 -34 14 -61 13 -42 13 -51 0 -69 -18 -26 -18 -36 0
-36 15 0 107 165 98 174 -11 12 -41 -16 -47 -44 -8 -36 -25 -30 -25 9 0 20 -6
30 -20 34 -12 3 -20 0 -20 -7z"/>
<path d="M1032 813 c-20 -8 -44 -63 -38 -88 7 -28 34 -39 54 -23 12 10 16 10
19 1 10 -30 31 -11 37 33 11 81 10 84 -26 83 -18 0 -39 -3 -46 -6z m41 -46
c-12 -45 -43 -64 -43 -25 0 24 28 60 40 53 5 -3 6 -15 3 -28z"/>
<path d="M1235 795 c-30 -29 -34 -80 -7 -94 11 -6 24 -6 32 -1 9 5 20 5 28 -2
19 -17 29 0 37 65 l6 57 -36 0 c-25 0 -43 -8 -60 -25z m45 -54 c-16 -30 -30
-26 -30 9 0 35 33 61 38 30 2 -10 -2 -28 -8 -39z"/>
<path d="M1695 795 c-28 -28 -32 -66 -9 -89 12 -13 20 -14 36 -5 16 8 22 8 29
-2 14 -23 27 1 34 64 l7 57 -36 0 c-26 0 -44 -7 -61 -25z m45 -54 c-6 -12 -15
-21 -20 -21 -17 0 -11 48 8 66 16 17 17 17 20 -4 2 -11 -2 -30 -8 -41z"/>
<path d="M1962 813 c-20 -8 -44 -63 -38 -88 7 -28 34 -39 54 -23 12 10 16 10
19 1 10 -30 31 -11 37 33 11 81 10 84 -26 83 -18 0 -39 -3 -46 -6z m28 -72
c-6 -12 -15 -21 -20 -21 -17 0 -11 48 8 66 16 17 17 17 20 -4 2 -11 -2 -30 -8
-41z"/>
<path d="M1394 779 c-3 -6 -2 -15 4 -21 15 -15 56 -5 60 15 3 13 -3 17 -27 17
-16 0 -33 -5 -37 -11z"/>
<path d="M732 340 c-22 -21 -25 -39 -14 -75 10 -30 74 -33 101 -6 27 27 26 52
-2 79 -29 27 -57 28 -85 2z m40 -47 c5 -6 15 -10 23 -7 7 3 16 1 19 -4 3 -6
-1 -13 -10 -16 -22 -8 -64 20 -64 43 0 25 14 37 19 14 2 -10 7 -23 13 -30z"/>
<path d="M942 338 c-16 -16 -15 -53 1 -67 19 -15 27 -4 27 35 0 37 -11 49 -28
32z"/>
<path d="M1044 295 c-9 -22 5 -38 22 -24 18 15 18 25 -1 33 -9 3 -18 -1 -21
-9z"/>
<path d="M1143 343 c-17 -6 -16 -30 1 -36 21 -8 40 17 24 30 -7 6 -19 8 -25 6z"/>
<path d="M1241 297 c-7 -7 -7 -14 0 -23 12 -15 39 -7 39 11 0 18 -25 26 -39
12z"/>
<path d="M1493 294 c-8 -20 8 -36 26 -25 15 10 8 41 -9 41 -6 0 -13 -7 -17
-16z"/>
<path d="M1691 296 c-9 -10 -8 -16 3 -25 10 -9 16 -8 25 3 9 10 8 16 -3 25
-10 9 -16 8 -25 -3z"/>
<path d="M1844 295 c-9 -23 10 -40 25 -22 9 11 8 17 -4 27 -12 10 -16 9 -21
-5z"/>
<path d="M1940 300 c-13 -8 -13 -11 1 -25 13 -14 17 -14 27 -2 16 19 -7 40
-28 27z"/>
</g>
</svg>
